HIERARCHY
ROOT Hips
{
    OFFSET   0.000000   0.000000   0.000000
    CHANNELS 6 Xposition Yposition Zposition Zrotation Xrotation Yrotation
    JOINT Chest
    {
        OFFSET   0.000000   8.007230   0.000000
        CHANNELS 3 Zrotation Xrotation Yrotation
        JOINT Chest2
        {
            OFFSET   0.000000  22.077100   0.000000
            CHANNELS 3 Zrotation Xrotation Yrotation
            JOINT Neck
            {
                OFFSET   0.000000  23.254800  -0.000021
                CHANNELS 3 Zrotation Xrotation Yrotation
                JOINT Head
                {
                    OFFSET   0.000000  14.370000   1.956610
                    CHANNELS 3 Zrotation Xrotation Yrotation
                    End Site
                    {
                        OFFSET   0.000000  19.566000   0.000000
                    }
                }
            }
            JOINT LeftCollar
            {
                OFFSET   3.911900  19.017000  -0.467063
                CHANNELS 3 Zrotation Xrotation Yrotation
                JOINT LeftShoulder
                {
                    OFFSET  10.383700   0.000000   0.000000
                    CHANNELS 3 Zrotation Xrotation Yrotation
                    JOINT LeftElbow
                    {
                        OFFSET  26.662100   0.001529   0.000325
                        CHANNELS 3 Zrotation Xrotation Yrotation
                        JOINT LeftWrist
                        {
                            OFFSET  28.869000  -0.000011  -0.000096
                            CHANNELS 3 Zrotation Xrotation Yrotation
                            JOINT LeftFinger0
                            {
                                OFFSET   2.044650  -2.323460   3.252850
                                CHANNELS 3 Zrotation Xrotation Yrotation
                                JOINT LeftFinger01
                                {
                                    OFFSET   3.088130   0.000000   0.000000
                                    CHANNELS 3 Zrotation Xrotation Yrotation
                                    JOINT LeftFinger02
                                    {
                                        OFFSET   2.639460   0.000000   0.000000
                                        CHANNELS 3 Zrotation Xrotation Yrotation
                                        End Site
                                        {
                                            OFFSET   2.582190   0.000000   0.000000
                                        }
                                    }
                                }
                            }
                            JOINT LeftFinger1
                            {
                                OFFSET   8.364480   0.000000   3.252850
                                CHANNELS 3 Zrotation Xrotation Yrotation
                                JOINT LeftFinger11
                                {
                                    OFFSET   4.646930   0.000000   0.000000
                                    CHANNELS 3 Zrotation Xrotation Yrotation
                                    JOINT LeftFinger12
                                    {
                                        OFFSET   2.323460   0.000000   0.000000
                                        CHANNELS 3 Zrotation Xrotation Yrotation
                                        End Site
                                        {
                                            OFFSET   2.273050   0.000000   0.000000
                                        }
                                    }
                                }
                            }
                            JOINT LeftFinger2
                            {
                                OFFSET   8.364480   0.000016   1.078090
                                CHANNELS 3 Zrotation Xrotation Yrotation
                                JOINT LeftFinger21
                                {
                                    OFFSET   5.111620   0.000000   0.000000
                                    CHANNELS 3 Zrotation Xrotation Yrotation
                                    JOINT LeftFinger22
                                    {
                                        OFFSET   2.788160   0.000017   0.000000
                                        CHANNELS 3 Zrotation Xrotation Yrotation
                                        End Site
                                        {
                                            OFFSET   2.727660   0.000000   0.000000
                                        }
                                    }
                                }
                            }
                            JOINT LeftFinger3
                            {
                                OFFSET   7.899780   0.000015  -1.078090
                                CHANNELS 3 Zrotation Xrotation Yrotation
                                JOINT LeftFinger31
                                {
                                    OFFSET   4.646920   0.000000   0.000000
                                    CHANNELS 3 Zrotation Xrotation Yrotation
                                    JOINT LeftFinger32
                                    {
                                        OFFSET   2.323470   0.000000   0.000000
                                        CHANNELS 3 Zrotation Xrotation Yrotation
                                        End Site
                                        {
                                            OFFSET   2.273050   0.000000   0.000000
                                        }
                                    }
                                }
                            }
                            JOINT LeftFinger4
                            {
                                OFFSET   7.435090   0.000000  -3.252850
                                CHANNELS 3 Zrotation Xrotation Yrotation
                                JOINT LeftFinger41
                                {
                                    OFFSET   3.717550   0.000000   0.000000
                                    CHANNELS 3 Zrotation Xrotation Yrotation
                                    JOINT LeftFinger42
                                    {
                                        OFFSET   1.858760   0.000000   0.000000
                                        CHANNELS 3 Zrotation Xrotation Yrotation
                                        End Site
                                        {
                                            OFFSET   1.818440   0.000000   0.000000
                                        }
                                    }
                                }
                            }
                        }
                    }
                }
            }
            JOINT RightCollar
            {
                OFFSET  -3.911900  19.017000  -0.467062
                CHANNELS 3 Zrotation Xrotation Yrotation
                JOINT RightShoulder
                {
                    OFFSET -10.383700   0.000015   0.000000
                    CHANNELS 3 Zrotation Xrotation Yrotation
                    JOINT RightElbow
                    {
                        OFFSET -26.662100   0.001341   0.000385
                        CHANNELS 3 Zrotation Xrotation Yrotation
                        JOINT RightWrist
                        {
                            OFFSET -28.869000   0.000025  -0.000080
                            CHANNELS 3 Zrotation Xrotation Yrotation
                            JOINT RightFinger0
                            {
                                OFFSET  -2.044650  -2.323490   3.252850
                                CHANNELS 3 Zrotation Xrotation Yrotation
                                JOINT RightFinger01
                                {
                                    OFFSET  -3.088130   0.000000   0.000000
                                    CHANNELS 3 Zrotation Xrotation Yrotation
                                    JOINT RightFinger02
                                    {
                                        OFFSET  -2.639460   0.000000   0.000000
                                        CHANNELS 3 Zrotation Xrotation Yrotation
                                        End Site
                                        {
                                            OFFSET  -2.582190   0.000000   0.000000
                                        }
                                    }
                                }
                            }
                            JOINT RightFinger1
                            {
                                OFFSET  -8.364480   0.000000   3.252850
                                CHANNELS 3 Zrotation Xrotation Yrotation
                                JOINT RightFinger11
                                {
                                    OFFSET  -4.646930   0.000000   0.000000
                                    CHANNELS 3 Zrotation Xrotation Yrotation
                                    JOINT RightFinger12
                                    {
                                        OFFSET  -2.323470   0.000000   0.000000
                                        CHANNELS 3 Zrotation Xrotation Yrotation
                                        End Site
                                        {
                                            OFFSET  -2.273050   0.000000   0.000000
                                        }
                                    }
                                }
                            }
                            JOINT RightFinger2
                            {
                                OFFSET  -8.364480   0.000000   1.078090
                                CHANNELS 3 Zrotation Xrotation Yrotation
                                JOINT RightFinger21
                                {
                                    OFFSET  -5.111610   0.000000   0.000000
                                    CHANNELS 3 Zrotation Xrotation Yrotation
                                    JOINT RightFinger22
                                    {
                                        OFFSET  -2.788160   0.000000   0.000000
                                        CHANNELS 3 Zrotation Xrotation Yrotation
                                        End Site
                                        {
                                            OFFSET  -2.727660   0.000000   0.000000
                                        }
                                    }
                                }
                            }
                            JOINT RightFinger3
                            {
                                OFFSET  -7.899780   0.000000  -1.078090
                                CHANNELS 3 Zrotation Xrotation Yrotation
                                JOINT RightFinger31
                                {
                                    OFFSET  -4.646920   0.000000   0.000000
                                    CHANNELS 3 Zrotation Xrotation Yrotation
                                    JOINT RightFinger32
                                    {
                                        OFFSET  -2.323470   0.000000   0.000000
                                        CHANNELS 3 Zrotation Xrotation Yrotation
                                        End Site
                                        {
                                            OFFSET  -2.273050   0.000000   0.000000
                                        }
                                    }
                                }
                            }
                            JOINT RightFinger4
                            {
                                OFFSET  -7.435090   0.000000  -3.252850
                                CHANNELS 3 Zrotation Xrotation Yrotation
                                JOINT RightFinger41
                                {
                                    OFFSET  -3.717550   0.000000   0.000000
                                    CHANNELS 3 Zrotation Xrotation Yrotation
                                    JOINT RightFinger42
                                    {
                                        OFFSET  -1.858770   0.000000   0.000000
                                        CHANNELS 3 Zrotation Xrotation Yrotation
                                        End Site
                                        {
                                            OFFSET  -1.818440   0.000000   0.000000
                                        }
                                    }
                                }
                            }
                        }
                    }
                }
            }
        }
    }
    JOINT LeftHip
    {
        OFFSET   9.783010   0.000000   0.000000
        CHANNELS 3 Zrotation Xrotation Yrotation
        JOINT LeftKnee
        {
            OFFSET   0.000070 -41.789100   0.000028
            CHANNELS 3 Zrotation Xrotation Yrotation
            JOINT LeftAnkle
            {
                OFFSET   0.000087 -41.133200  -0.000100
                CHANNELS 3 Zrotation Xrotation Yrotation
                JOINT LeftToe
                {
                    OFFSET   0.000000  -6.358960  14.674500
                    CHANNELS 3 Zrotation Xrotation Yrotation
                    End Site
                    {
                        OFFSET   0.000000   0.000000   3.913200
                    }
                }
            }
        }
    }
    JOINT RightHip
    {
        OFFSET  -9.783020   0.000000   0.000000
        CHANNELS 3 Zrotation Xrotation Yrotation
        JOINT RightKnee
        {
            OFFSET   0.000044 -41.789100  -0.000870
            CHANNELS 3 Zrotation Xrotation Yrotation
            JOINT RightAnkle
            {
                OFFSET  -0.000090 -41.133200  -0.000245
                CHANNELS 3 Zrotation Xrotation Yrotation
                JOINT RightToe
                {
                    OFFSET   0.000000  -6.358960  14.674500
                    CHANNELS 3 Zrotation Xrotation Yrotation
                    End Site
                    {
                        OFFSET   0.000000   0.000000   3.913200
                    }
                }
            }
        }
    }
}
MOTION
Frames: 4
Frame Time:   0.016667
 -1.171230  89.051200   1.478670   1.681210 -25.736200   5.082600   0.323449  14.158300   2.559840  -0.031676  28.316500   5.289510  -1.694790  -3.768000  -0.111130  -2.816200  -7.621590  -5.637370  -7.825210  -5.480800   4.741660 -71.780900  20.360900 -12.862200  -0.712625   1.650690 -16.913700   9.550980  -3.856530  -3.688790  40.191000  32.904900 -46.104700 -31.349900   0.002684   0.003175 -10.675000   0.000930   0.001887 -30.662000  -1.347970   2.273350 -25.112200   0.003928  -0.007871 -17.578500   0.003294  -0.009508 -21.270200  -3.787990   9.638190 -21.592400  -0.001519  -0.011094 -14.380500  -0.001034   0.004008 -28.083600  -4.911070   9.115540 -35.910400  -0.000683   0.000848 -23.916300   0.010278  -0.004544 -35.069200  -5.986690   8.449210 -53.272100  -0.003437  -0.010439 -35.479200  -0.002373  -0.000769   6.819190  -2.407610  12.412800  61.303900  -7.516090  68.358700 -15.657700 -14.013600  56.450100  -8.300130   5.699960  20.880900 -48.126300  46.699600  92.470700 -17.961100  -0.002140  -0.000754 -13.980500  -0.001180   0.000336 -13.212900  -5.453300  21.938800   0.000000  -0.000204   0.000347  -0.000370   0.001769   0.000192  -5.835230  -1.386450  12.976800   0.001872   0.001519   0.000352   0.001251   0.017034   0.000172  -9.243760  -1.755830  10.726800  -0.000001   0.009122   0.007067  -0.000425   0.006135   0.004639   2.387090  -0.662083 -15.577500   3.735520   0.001738  -0.025519   2.487870   0.001524  -0.017165   0.863564  19.222500  -1.516450   3.385090  15.071200   7.338620  -4.036260  -9.056920  -2.666780   0.000000   0.000000   0.000000   0.974701  22.782900  -6.381850  -0.600545  11.637600 -20.769100   3.923050  -7.365080   5.028950   0.000000   0.000000   0.000000
 -0.808843  89.064000   1.485160   2.282200 -25.437700   6.264150   0.177188  14.063200   2.693150  -0.369888  28.118400   5.606600  -1.775160  -4.141480  -0.129238  -2.992970  -8.374600  -6.265320  -7.909880  -5.547130   4.669700 -71.699900  19.879000 -13.099800  -0.557452   2.408370 -16.661000   9.571890  -3.843300  -3.489630  40.340200  33.218800 -46.547500 -31.353700   0.002702   0.003206 -10.676900   0.000962   0.001898 -30.518800  -1.494260   2.534900 -24.997900   0.003956  -0.007971 -17.498500   0.003353  -0.009625 -21.305200  -3.800620   9.653270 -21.628500  -0.001512  -0.011189 -14.404600  -0.001048   0.004066 -28.063300  -4.915760   9.132440 -35.684200  -0.000734   0.000848 -23.765700   0.010331  -0.004551 -34.914100  -5.976570   8.479320 -53.038300  -0.003433  -0.010606 -35.323500  -0.002377  -0.000794   6.861550  -2.478290  12.321700  59.031800  -8.102880  67.057500 -14.626300 -15.715200  56.500700 -10.934800   7.817190  22.268700 -48.847500  47.837600  94.359300 -17.780100  -0.000903  -0.000236 -13.890000  -0.001092   0.000353 -12.128100  -5.109790  22.453600   0.000000  -0.000301   0.000453  -0.000468   0.002230   0.000258  -5.689040  -1.374100  13.485100   0.002403   0.001894   0.000466   0.001608   0.016854   0.000235 -10.100600  -1.967620  10.633600  -0.000001   0.009101   0.007116  -0.000670   0.006122   0.004669   1.891310  -0.519079 -15.158000   2.959060   0.001479  -0.025293   1.970740   0.001129  -0.017009   0.478006  19.225700  -1.532190   3.469020  14.428800   6.871750  -3.960960  -8.682910  -3.052200   0.000000   0.000000  -0.000000   0.572892  22.543800  -6.666260  -0.525593  11.839500 -21.222500   3.965880  -7.442880   4.818590   0.000000   0.000000   0.000000
 -0.425660  89.070500   1.491700   2.877620 -25.152400   7.347230   0.052671  13.989000   2.811390  -0.658692  27.962600   5.885820  -1.930500  -4.495670  -0.151968  -3.226540  -9.085230  -6.773520  -8.037680  -5.625050   4.638760 -71.799900  19.065200 -13.284700  -0.516039   2.815040 -16.348700   9.610380  -3.830130  -3.261570  40.539800  33.618000 -47.233600 -31.380500   0.002719   0.003233 -10.690200   0.000991   0.001914 -30.413200  -1.612620   2.746570 -24.915600   0.003985  -0.008074 -17.440900   0.003410  -0.009741 -21.445700  -3.840470   9.683570 -21.772400  -0.001506  -0.011280 -14.500400  -0.001061   0.004124 -28.039200  -4.931890   9.170730 -35.458000  -0.000787   0.000848 -23.615000   0.010379  -0.004556 -34.755300  -5.974370   8.532870 -52.804400  -0.003429  -0.010766 -35.167700  -0.002381  -0.000820   6.891630  -2.488930  12.251700  58.030200  -8.668550  65.977900 -13.449000 -17.231100  57.093300 -13.135200  11.120900  23.231100 -49.381200  48.498800  95.595900 -17.754300  -0.000659  -0.000162 -13.877100  -0.001062   0.000388 -11.061200  -4.705450  22.725800   0.000000  -0.000399   0.000566  -0.000572   0.002690   0.000328  -5.554220  -1.362970  13.774100   0.002922   0.002268   0.000587   0.001956   0.016619   0.000304 -10.897900  -2.044530  10.491500  -0.000001   0.009041   0.007140  -0.000924   0.006083   0.004686   1.161390  -0.309168 -14.705800   1.819560   0.001053  -0.023709   1.211820   0.000592  -0.015919   0.055065  19.248900  -1.618220   3.501370  13.713200   6.459400  -3.849890  -8.286140  -3.314070  -0.000000   0.000000   0.000000   0.130678  22.334600  -6.933550  -0.456195  12.028200 -21.612000   4.052000  -7.528860   4.614860   0.000000   0.000000   0.000000
 -0.028239  89.075900   1.498680   3.455190 -24.873000   8.357350  -0.043664  13.916500   2.875790  -0.873178  27.811900   6.043890  -2.117380  -4.781440  -0.177186  -3.546800  -9.655330  -7.011350  -8.131550  -5.652750   4.637250 -72.071800  18.306900 -13.373300  -0.493560   2.807950 -16.038600   9.794600  -3.963470  -3.012140  40.559700  33.669000 -47.737300 -31.445400   0.002726   0.003258 -10.722600   0.001013   0.001931 -30.451900  -1.666520   2.830230 -24.949200   0.004014  -0.008179 -17.464400   0.003466  -0.009858 -21.750500  -3.923530   9.729210 -22.084000  -0.001502  -0.011368 -14.707900  -0.001074   0.004182 -28.045600  -4.972900   9.239430 -35.590300  -0.000842   0.000847 -23.703200   0.010422  -0.004559 -34.760200  -6.019490   8.596620 -52.820700  -0.003423  -0.010920 -35.178600  -0.002385  -0.000848   6.886140  -2.487790  12.159200  58.626300  -9.252990  65.302000 -13.991700 -16.459500  57.551900 -15.094900  13.563200  24.004200 -48.515400  47.843100  94.393400 -17.762000  -0.000539  -0.000223 -13.881000  -0.001000   0.000427  -9.643980  -4.124880  22.622300   0.000000  -0.000505   0.000687  -0.000687   0.003156   0.000404  -4.991200  -1.272390  14.142800   0.003412   0.002635   0.000714   0.002268   0.016334   0.000375 -10.861300  -2.034950  10.449100  -0.000001   0.008937   0.007144  -0.001171   0.006021   0.004691   0.735298  -0.188648 -14.366500   1.143880   0.000248  -0.010682   0.761820   0.000092  -0.007193  -0.367110  19.331600  -1.831230   3.446080  12.979000   6.098210  -3.690140  -7.883410  -3.431420   0.000000   0.000000   0.000000  -0.318142  22.161900  -7.129830  -0.384955  12.186900 -21.926300   4.177500  -7.622110   4.327820  -0.000000   0.000000  -0.000000
